#Comment line ignore any data following # character 
#Hierarchical Translation and Rotation (.htr) file 
[Header]	
#Header keywords are followed by a single value 
FileType HTR		#Single word string
DataType HTRS		#Translation followed by rotation and scale data
FileVersion 1		#integer
NumSegments 84		#integer
NumFrames 2		#integer
DataFrameRate 30		#integer, data frame rate in this file
EulerRotationOrder ZYX
CalibrationUnits mm
RotationUnits Degrees
GlobalAxisofGravity Y
BoneLengthAxis Y
ScaleFactor 1.00
[SegmentNames&Hierarchy]
#CHILD	PARENT
MASTER GLOBAL
root MASTER
chest root
L_mid_tent01 root
R_mid_tent01 root
spine01 root
Bip01_Neck chest
L_humerus chest
R_humerus chest
weapon_bone chest
Bip01_Head Bip01_Neck
eye_left_bone Bip01_Head
eye_right_bone Bip01_Head
L_forearm L_humerus
L_front_hand L_forearm
L_weapon_bone L_forearm
L_front_hand01_01 L_front_hand
L_front_hand02_01 L_front_hand
L_front_hand03_01 L_front_hand
L_front_hand01_02 L_front_hand01_01
L_front_hand02_02 L_front_hand02_01
L_front_hand03_02 L_front_hand03_01
R_forearm R_humerus
R_front_hand R_forearm
R_weapon_bone R_forearm
R_front_hand01_01 R_front_hand
R_front_hand02_01 R_front_hand
R_front_hand03_01 R_front_hand
R_front_hand01_02 R_front_hand01_01
R_front_hand02_02 R_front_hand02_01
R_front_hand03_02 R_front_hand03_01
null_rope01_connect L_mid_tent01
Rope1_Seg01 null_rope01_connect
Rope1_Seg02 Rope1_Seg01
Rope1_Seg03 Rope1_Seg02
Rope1_Seg04 Rope1_Seg03
Rope1_Seg05 Rope1_Seg04
Rope1_Seg06 Rope1_Seg05
Rope1_Seg07 Rope1_Seg06
Rope1_Seg09 Rope1_Seg07
L_mid_hand01 Rope1_Seg09
L_mid_hand02 Rope1_Seg09
L_mid_hand03 Rope1_Seg09
null_rope02_connect R_mid_tent01
Rope2_Seg01 null_rope02_connect
Rope2_Seg02 Rope2_Seg01
Rope2_Seg03 Rope2_Seg02
Rope2_Seg04 Rope2_Seg03
Rope2_Seg05 Rope2_Seg04
Rope2_Seg06 Rope2_Seg05
Rope2_Seg07 Rope2_Seg06
Rope2_Seg09 Rope2_Seg07
R_mid_hand01 Rope2_Seg09
R_mid_hand02 Rope2_Seg09
R_mid_hand03 Rope2_Seg09
spine02 spine01
spine03 spine02
pelvis spine03
null_rope03_connect pelvis
null_rope04_connect pelvis
Rope3_Seg01 null_rope03_connect
Rope3_Seg02 Rope3_Seg01
Rope3_Seg03 Rope3_Seg02
Rope3_Seg04 Rope3_Seg03
Rope3_Seg05 Rope3_Seg04
Rope3_Seg06 Rope3_Seg05
Rope3_Seg07 Rope3_Seg06
Rope3_Seg08 Rope3_Seg07
Rope3_Seg09 Rope3_Seg08
R_rear_hand01 Rope3_Seg09
R_rear_hand02 Rope3_Seg09
R_rear_hand03 Rope3_Seg09
Rope4_Seg01 null_rope04_connect
Rope4_Seg02 Rope4_Seg01
Rope4_Seg03 Rope4_Seg02
Rope4_Seg04 Rope4_Seg03
Rope4_Seg05 Rope4_Seg04
Rope4_Seg06 Rope4_Seg05
Rope4_Seg07 Rope4_Seg06
Rope4_Seg08 Rope4_Seg07
Rope4_Seg09 Rope4_Seg08
L_rear_hand01 Rope4_Seg09
L_rear_hand02 Rope4_Seg09
L_rear_hand03 Rope4_Seg09
[BasePosition]
#SegmentName Tx, Ty, Tz, Rx, Ry, Rz, BoneLength
MASTER 0.000000 0.000000 0.000000 -90.000000 0.000000 0.000000 10.000000 
root 0.000000 0.000000 0.000000 0.000000 0.000000 0.000000 10.000000 
chest 0.000000 0.000000 0.000000 0.000000 0.000000 0.000000 10.000000 
L_mid_tent01 0.000000 0.000000 0.000000 0.000000 0.000000 0.000000 10.000000 
R_mid_tent01 0.000000 0.000000 0.000000 0.000000 0.000000 0.000000 10.000000 
spine01 0.000000 0.000000 0.000000 0.000000 0.000000 0.000000 10.000000 
Bip01_Neck 0.000000 0.000000 0.000000 0.000000 0.000000 0.000000 10.000000 
L_humerus 0.000000 0.000000 0.000000 0.000000 0.000000 0.000000 10.000000 
R_humerus 0.000000 0.000000 0.000000 0.000000 0.000000 0.000000 10.000000 
weapon_bone 0.000000 0.000000 0.000000 0.000000 0.000000 0.000000 10.000000 
Bip01_Head 0.000000 0.000000 0.000000 0.000000 0.000000 0.000000 10.000000 
eye_left_bone 0.000000 0.000000 0.000000 0.000000 0.000000 0.000000 10.000000 
eye_right_bone 0.000000 0.000000 0.000000 0.000000 0.000000 0.000000 10.000000 
L_forearm 0.000000 0.000000 0.000000 0.000000 0.000000 0.000000 10.000000 
L_front_hand 0.000000 0.000000 0.000000 0.000000 0.000000 0.000000 10.000000 
L_weapon_bone 0.000000 0.000000 0.000000 0.000000 0.000000 0.000000 10.000000 
L_front_hand01_01 0.000000 0.000000 0.000000 0.000000 0.000000 0.000000 10.000000 
L_front_hand02_01 0.000000 0.000000 0.000000 0.000000 0.000000 0.000000 10.000000 
L_front_hand03_01 0.000000 0.000000 0.000000 0.000000 0.000000 0.000000 10.000000 
L_front_hand01_02 0.000000 0.000000 0.000000 0.000000 0.000000 0.000000 10.000000 
L_front_hand02_02 0.000000 0.000000 0.000000 0.000000 0.000000 0.000000 10.000000 
L_front_hand03_02 0.000000 0.000000 0.000000 0.000000 0.000000 0.000000 10.000000 
R_forearm 0.000000 0.000000 0.000000 0.000000 0.000000 0.000000 10.000000 
R_front_hand 0.000000 0.000000 0.000000 0.000000 0.000000 0.000000 10.000000 
R_weapon_bone 0.000000 0.000000 0.000000 0.000000 0.000000 0.000000 10.000000 
R_front_hand01_01 0.000000 0.000000 0.000000 0.000000 0.000000 0.000000 10.000000 
R_front_hand02_01 0.000000 0.000000 0.000000 0.000000 0.000000 0.000000 10.000000 
R_front_hand03_01 0.000000 0.000000 0.000000 0.000000 0.000000 0.000000 10.000000 
R_front_hand01_02 0.000000 0.000000 0.000000 0.000000 0.000000 0.000000 10.000000 
R_front_hand02_02 0.000000 0.000000 0.000000 0.000000 0.000000 0.000000 10.000000 
R_front_hand03_02 0.000000 0.000000 0.000000 0.000000 0.000000 0.000000 10.000000 
null_rope01_connect 0.000000 0.000000 0.000000 0.000000 0.000000 0.000000 10.000000 
Rope1_Seg01 0.000000 0.000000 0.000000 0.000000 0.000000 0.000000 10.000000 
Rope1_Seg02 0.000000 0.000000 0.000000 0.000000 0.000000 0.000000 10.000000 
Rope1_Seg03 0.000000 0.000000 0.000000 0.000000 0.000000 0.000000 10.000000 
Rope1_Seg04 0.000000 0.000000 0.000000 0.000000 0.000000 0.000000 10.000000 
Rope1_Seg05 0.000000 0.000000 0.000000 0.000000 0.000000 0.000000 10.000000 
Rope1_Seg06 0.000000 0.000000 0.000000 0.000000 0.000000 0.000000 10.000000 
Rope1_Seg07 0.000000 0.000000 0.000000 0.000000 0.000000 0.000000 10.000000 
Rope1_Seg09 0.000000 0.000000 0.000000 0.000000 0.000000 0.000000 10.000000 
L_mid_hand01 0.000000 0.000000 0.000000 0.000000 0.000000 0.000000 10.000000 
L_mid_hand02 0.000000 0.000000 0.000000 0.000000 0.000000 0.000000 10.000000 
L_mid_hand03 0.000000 0.000000 0.000000 0.000000 0.000000 0.000000 10.000000 
null_rope02_connect 0.000000 0.000000 0.000000 0.000000 0.000000 0.000000 10.000000 
Rope2_Seg01 0.000000 0.000000 0.000000 0.000000 0.000000 0.000000 10.000000 
Rope2_Seg02 0.000000 0.000000 0.000000 0.000000 0.000000 0.000000 10.000000 
Rope2_Seg03 0.000000 0.000000 0.000000 0.000000 0.000000 0.000000 10.000000 
Rope2_Seg04 0.000000 0.000000 0.000000 0.000000 0.000000 0.000000 10.000000 
Rope2_Seg05 0.000000 0.000000 0.000000 0.000000 0.000000 0.000000 10.000000 
Rope2_Seg06 0.000000 0.000000 0.000000 0.000000 0.000000 0.000000 10.000000 
Rope2_Seg07 0.000000 0.000000 0.000000 0.000000 0.000000 0.000000 10.000000 
Rope2_Seg09 0.000000 0.000000 0.000000 0.000000 0.000000 0.000000 10.000000 
R_mid_hand01 0.000000 0.000000 0.000000 0.000000 0.000000 0.000000 10.000000 
R_mid_hand02 0.000000 0.000000 0.000000 0.000000 0.000000 0.000000 10.000000 
R_mid_hand03 0.000000 0.000000 0.000000 0.000000 0.000000 0.000000 10.000000 
spine02 0.000000 0.000000 0.000000 0.000000 0.000000 0.000000 10.000000 
spine03 0.000000 0.000000 0.000000 0.000000 0.000000 0.000000 10.000000 
pelvis 0.000000 0.000000 0.000000 0.000000 0.000000 0.000000 10.000000 
null_rope03_connect 0.000000 0.000000 0.000000 0.000000 0.000000 0.000000 10.000000 
null_rope04_connect 0.000000 0.000000 0.000000 0.000000 0.000000 0.000000 10.000000 
Rope3_Seg01 0.000000 0.000000 0.000000 0.000000 0.000000 0.000000 10.000000 
Rope3_Seg02 0.000000 0.000000 0.000000 0.000000 0.000000 0.000000 10.000000 
Rope3_Seg03 0.000000 0.000000 0.000000 0.000000 0.000000 0.000000 10.000000 
Rope3_Seg04 0.000000 0.000000 0.000000 0.000000 0.000000 0.000000 10.000000 
Rope3_Seg05 0.000000 0.000000 0.000000 0.000000 0.000000 0.000000 10.000000 
Rope3_Seg06 0.000000 0.000000 0.000000 0.000000 0.000000 0.000000 10.000000 
Rope3_Seg07 0.000000 0.000000 0.000000 0.000000 0.000000 0.000000 10.000000 
Rope3_Seg08 0.000000 0.000000 0.000000 0.000000 0.000000 0.000000 10.000000 
Rope3_Seg09 0.000000 0.000000 0.000000 0.000000 0.000000 0.000000 10.000000 
R_rear_hand01 0.000000 0.000000 0.000000 0.000000 0.000000 0.000000 10.000000 
R_rear_hand02 0.000000 0.000000 0.000000 0.000000 0.000000 0.000000 10.000000 
R_rear_hand03 0.000000 0.000000 0.000000 0.000000 0.000000 0.000000 10.000000 
Rope4_Seg01 0.000000 0.000000 0.000000 0.000000 0.000000 0.000000 10.000000 
Rope4_Seg02 0.000000 0.000000 0.000000 0.000000 0.000000 0.000000 10.000000 
Rope4_Seg03 0.000000 0.000000 0.000000 0.000000 0.000000 0.000000 10.000000 
Rope4_Seg04 0.000000 0.000000 0.000000 0.000000 0.000000 0.000000 10.000000 
Rope4_Seg05 0.000000 0.000000 0.000000 0.000000 0.000000 0.000000 10.000000 
Rope4_Seg06 0.000000 0.000000 0.000000 0.000000 0.000000 0.000000 10.000000 
Rope4_Seg07 0.000000 0.000000 0.000000 0.000000 0.000000 0.000000 10.000000 
Rope4_Seg08 0.000000 0.000000 0.000000 0.000000 0.000000 0.000000 10.000000 
Rope4_Seg09 0.000000 0.000000 0.000000 0.000000 0.000000 0.000000 10.000000 
L_rear_hand01 0.000000 0.000000 0.000000 0.000000 0.000000 0.000000 10.000000 
L_rear_hand02 0.000000 0.000000 0.000000 0.000000 0.000000 0.000000 10.000000 
L_rear_hand03 0.000000 0.000000 0.000000 0.000000 0.000000 0.000000 10.000000 
#Beginning of Data. Separated by tabs
#Fr	Tx	Ty	Tz	Rx	Ry	Rz	SF
[MASTER]
8 0.000003 -0.000090 -614.216736 0.001660 0.001660 0.001660 614.216736
9 0.000003 -0.000087 -777.160828 0.001660 0.001660 0.001660 777.160828
[root]
8 -16.502298 -28.667049 1471.751953 -83.639900 -13.333443 -87.595528 1472.123535
9 -16.502298 -27.386013 1470.628784 -87.161346 -13.654256 -88.798645 1470.976318
[chest]
8 -84.512650 -34.090519 0.000000 -80.002197 5.047310 154.351395 91.129311
9 -84.512650 -34.090519 0.000000 -69.594650 3.805850 156.464935 91.129311
[L_mid_tent01]
8 27.299286 22.178453 -249.918533 -140.162201 70.815063 -51.948254 252.381470
9 27.299284 22.178469 -249.918533 -118.368668 77.336472 -31.444071 252.381485
[R_mid_tent01]
8 23.228794 24.509907 226.238495 -178.228729 -77.564835 67.418968 228.744751
9 23.228794 24.509907 226.238495 174.162003 -74.827827 75.102791 228.744751
[spine01]
8 -0.361383 -0.195265 0.000000 0.002062 0.001122 32.879829 0.410763
9 -0.361383 -0.195265 0.000000 0.002062 0.001122 32.879829 0.410763
[Bip01_Neck]
8 165.484543 71.581718 0.000119 176.643677 -1.657967 43.431911 180.302734
9 165.484543 71.581718 0.000119 176.643677 -1.657967 43.431911 180.302734
[L_humerus]
8 -13.983130 -135.272980 -120.471481 161.717087 68.768631 -108.209656 181.680161
9 -13.983130 -135.272980 -120.471481 160.041611 69.229095 -109.507034 181.680161
[R_humerus]
8 -13.983309 -135.273102 125.287651 -174.174011 -69.544441 -89.925407 184.909012
9 -13.983309 -135.273102 125.287651 -173.482880 -68.833115 -90.969666 184.909012
[weapon_bone]
8 235.964890 -300.705902 0.000000 0.000000 -89.951546 -128.212341 382.234833
9 235.964890 -300.705902 0.000000 0.000000 -89.951546 -128.212341 382.234833
[Bip01_Head]
8 213.331879 186.010941 7.964302 29.043530 5.754932 -43.841969 283.150116
9 213.330399 186.019623 7.852390 29.995657 5.845968 -43.839413 283.151581
[eye_left_bone]
8 -24.626970 125.451866 -64.772606 0.000000 -90.000000 -99.840431 143.318359
9 -24.626970 125.451866 -64.772606 0.000000 -90.000000 -99.840431 143.318359
[eye_right_bone]
8 -24.626970 125.451866 64.327362 0.000000 -89.965736 80.156380 143.117676
9 -24.626970 125.451866 64.327362 0.000000 -89.980217 80.156380 143.117676
[L_forearm]
8 322.776093 0.000000 -0.000119 0.000215 -0.002338 -100.507332 322.776093
9 322.776093 0.000000 -0.000119 0.000206 -0.002338 -100.071968 322.776093
[L_front_hand]
8 241.149185 -0.042021 -3.300071 -178.492020 -1.695172 -33.085869 241.171753
9 241.149185 -0.042021 -3.300071 -178.502930 -1.705161 -32.711102 241.171753
[L_weapon_bone]
8 156.183838 0.000000 0.000000 0.000014 0.000007 0.000001 156.183838
9 156.183838 0.000000 0.000000 0.000014 0.000007 0.000001 156.183838
[L_front_hand01_01]
8 86.095154 20.947098 -0.655860 -0.359748 -0.482379 74.687195 88.609184
9 86.095154 20.947098 -0.655860 -0.365241 -0.478191 75.060913 88.609184
[L_front_hand02_01]
8 86.935165 -11.437475 24.513514 153.327362 -59.578354 -60.125923 91.046425
9 86.935165 -11.437475 24.513514 153.902100 -59.748310 -60.791729 91.046425
[L_front_hand03_01]
8 86.637497 -14.123976 -20.424902 -152.925369 57.809193 -61.536522 90.126129
9 86.637497 -14.123976 -20.424902 -153.458878 57.974709 -62.165943 90.126129
[L_front_hand01_02]
8 71.020905 -0.000179 0.000030 0.000328 -0.002324 -106.042160 71.020905
9 71.020905 -0.000179 0.000030 0.000329 -0.002324 -106.102745 71.020905
[L_front_hand02_02]
8 71.020927 -0.000119 0.000060 0.000328 -0.002324 -106.042160 71.020927
9 71.020927 -0.000119 0.000060 0.000329 -0.002324 -106.102745 71.020927
[L_front_hand03_02]
8 71.020905 -0.000060 0.000060 0.000328 -0.002324 -106.042160 71.020905
9 71.020905 -0.000060 0.000060 0.000329 -0.002324 -106.102745 71.020905
[R_forearm]
8 322.776428 -0.000060 0.000030 0.211897 0.027357 -98.466789 322.776428
9 322.776428 -0.000060 0.000030 0.212072 0.025453 -98.066269 322.776428
[R_front_hand]
8 238.847015 -0.006795 2.210259 -1.382354 -10.875190 -33.000748 238.857239
9 238.847015 -0.006795 2.210259 -1.462799 -10.864200 -32.571381 238.857239
[R_weapon_bone]
8 155.664093 0.002503 -0.000030 0.003487 0.001180 -90.988930 155.664078
9 155.664093 0.002503 -0.000030 0.003487 0.001180 -90.988930 155.664078
[R_front_hand01_01]
8 87.624611 14.231146 22.918642 -154.633499 -59.950634 61.746063 91.683487
9 87.624611 14.231146 22.918642 -154.633484 -59.950619 61.746037 91.683487
[R_front_hand02_01]
8 89.356956 14.367283 -19.491137 154.602661 58.302849 63.744389 92.579636
9 89.356956 14.367283 -19.491137 154.602676 58.302864 63.744389 92.579636
[R_front_hand03_01]
8 87.286232 -22.307278 -0.143439 0.162155 -0.423168 -75.767921 90.091743
9 87.286232 -22.307278 -0.143439 0.162155 -0.423168 -75.767921 90.091743
[R_front_hand01_02]
8 71.020905 0.000060 0.000119 0.002323 -0.000334 106.381714 71.020905
9 71.020905 0.000060 0.000119 0.002323 -0.000334 106.381714 71.020905
[R_front_hand02_02]
8 71.020844 -0.000030 -0.000119 0.002323 -0.000334 106.381714 71.020836
9 71.020844 -0.000030 -0.000119 0.002323 -0.000334 106.381714 71.020836
[R_front_hand03_02]
8 71.020905 0.000000 0.000030 0.002323 -0.000334 106.381714 71.020905
9 71.020905 0.000000 0.000030 0.002323 -0.000334 106.381714 71.020905
[null_rope01_connect]
8 328.732483 0.000000 -0.000238 -163.021118 7.574007 -165.494476 328.732483
9 328.732483 0.000000 -0.000238 -162.641922 2.789698 -167.849976 328.732483
[Rope1_Seg01]
8 0.000014 -0.000054 0.000055 -11.677069 -2.461697 -167.368912 0.000078
9 0.000016 -0.000053 0.000063 -14.803344 -6.296885 -168.333267 0.000084
[Rope1_Seg02]
8 139.999863 -0.000179 0.000000 -12.157720 -12.043497 -13.575451 139.999863
9 139.999863 -0.000179 0.000000 -11.988297 -10.924766 -14.043015 139.999863
[Rope1_Seg03]
8 139.999924 0.000060 -0.000060 -10.198869 -10.190438 -22.849926 139.999924
9 139.999924 0.000060 -0.000060 -9.845290 -9.177231 -23.194601 139.999924
[Rope1_Seg04]
8 139.999924 -0.000060 -0.000119 -4.097333 -4.556162 -21.176010 139.999924
9 139.999924 -0.000060 -0.000119 -3.752034 -3.596196 -22.771317 139.999924
[Rope1_Seg05]
8 139.999832 0.000119 -0.000060 -1.371774 -8.354379 -4.089609 139.999832
9 139.999832 0.000119 -0.000060 -0.740273 -6.375352 -3.226834 139.999832
[Rope1_Seg06]
8 139.999954 0.000119 -0.000060 -1.304430 -6.879669 -0.197393 139.999954
9 139.999954 0.000119 -0.000060 -0.654053 -5.558996 1.979488 139.999954
[Rope1_Seg07]
8 139.999985 0.000060 0.000000 -1.011890 -3.219893 -1.790774 139.999985
9 139.999985 0.000060 0.000000 -0.596703 -2.505937 -0.915319 139.999985
[Rope1_Seg09]
8 121.602913 0.000119 -0.000089 -89.793175 -1.359789 0.847147 121.602913
9 121.602913 0.000119 -0.000089 -89.793175 -1.359789 0.847147 121.602913
[L_mid_hand01]
8 103.859421 1.038730 8.195221 130.544373 -67.584534 -38.866943 104.187431
9 103.859421 1.038730 8.195221 130.544373 -67.584534 -38.866943 104.187431
[L_mid_hand02]
8 105.572853 -4.139662 -10.864139 -168.923172 43.409317 -73.498901 106.211075
9 105.572853 -4.139662 -10.864139 -168.923172 43.409309 -73.498886 106.211075
[L_mid_hand03]
8 104.641464 17.579376 -3.913581 -6.012627 17.808174 74.893669 106.179977
9 104.641464 17.579376 -3.913581 -6.012627 17.808174 74.893669 106.179977
[null_rope02_connect]
8 328.732849 0.000179 -0.000119 -146.074097 5.136412 -0.650952 328.732849
9 328.732849 0.000179 -0.000119 -145.436539 11.759265 1.548427 328.732849
[Rope2_Seg01]
8 -0.000042 0.000101 0.000000 69.228943 46.301651 4.296783 0.000109
9 -0.000037 0.000101 0.000000 65.594223 48.971340 0.471937 0.000108
[Rope2_Seg02]
8 139.999741 -0.000060 -0.000119 0.851522 3.941170 2.545122 139.999756
9 139.999741 -0.000060 -0.000119 0.536349 4.290788 1.061094 139.999756
[Rope2_Seg03]
8 140.000107 0.000030 0.000000 1.429175 8.150359 5.470655 140.000107
9 140.000107 0.000030 0.000000 0.648483 8.490888 2.098123 140.000107
[Rope2_Seg04]
8 139.999802 0.000000 -0.000060 4.568484 30.557034 27.554701 139.999802
9 139.999802 0.000000 -0.000060 -0.951014 30.007610 11.055622 139.999802
[Rope2_Seg05]
8 139.999985 -0.000060 0.000119 -7.117281 34.483444 -13.494950 139.999985
9 139.999985 -0.000060 0.000119 -12.267292 34.490555 -4.230638 139.999985
[Rope2_Seg06]
8 139.999893 -0.000030 -0.000119 -1.165553 5.541363 -1.708677 139.999893
9 139.999893 -0.000030 -0.000119 -3.420338 5.087727 0.097309 139.999893
[Rope2_Seg07]
8 139.999893 0.000060 -0.000060 -1.039363 2.638290 -0.521937 139.999893
9 139.999893 0.000060 -0.000060 -2.354913 2.463284 0.381494 139.999893
[Rope2_Seg09]
8 121.338966 0.000089 -0.000060 33.793236 -1.359788 -0.847141 121.338966
9 121.338966 0.000089 -0.000060 33.793236 -1.359788 -0.847141 121.338966
[R_mid_hand01]
8 104.680779 11.144459 -10.335981 -16.212059 45.237240 70.462852 105.778534
9 104.680779 11.144459 -10.335981 -16.212063 45.237247 70.462852 105.778534
[R_mid_hand02]
8 104.070427 2.443552 8.231699 49.067368 -67.749771 39.286453 104.424065
9 104.070427 2.443552 8.231699 49.067368 -67.749771 39.286453 104.424065
[R_mid_hand03]
8 106.028137 -11.221827 -5.996406 -177.101105 15.551026 -76.585571 106.788818
9 106.028137 -11.221827 -5.996406 -177.101105 15.551026 -76.585571 106.788818
[spine02]
8 129.756927 0.001550 0.000119 -1.203388 -4.174020 9.294147 129.756927
9 129.756927 0.001550 0.000119 -1.204432 -4.153861 9.322048 129.756927
[spine03]
8 78.613983 0.083728 -4.898928 0.918166 4.721134 2.654600 78.766518
9 78.613983 0.083667 -4.898930 0.916272 4.686703 2.628218 78.766518
[pelvis]
8 169.435242 0.051022 0.000000 0.025455 0.029687 -13.902593 169.435257
9 169.435242 0.051022 0.000000 0.024788 0.014667 -13.944943 169.435257
[null_rope03_connect]
8 -1.257226 -2.466202 137.391083 32.942329 -83.462471 39.447083 137.418976
9 -1.257226 -2.466202 137.391083 37.417702 -87.396461 35.416523 137.418976
[null_rope04_connect]
8 -1.259640 -2.480268 -137.844437 32.942329 -83.462471 39.447083 137.872513
9 -1.259640 -2.480268 -137.844437 37.417702 -87.396461 35.416523 137.872513
[Rope3_Seg01]
8 -0.000029 -0.000031 0.000055 14.159628 -5.903411 -57.668674 0.000069
9 -0.000029 -0.000030 0.000063 14.071850 -6.428058 -57.954082 0.000075
[Rope3_Seg02]
8 139.999924 -0.000119 0.000060 -2.011234 -5.317413 3.239844 139.999924
9 139.999924 -0.000119 0.000060 -1.970115 -5.157190 3.418225 139.999924
[Rope3_Seg03]
8 139.999924 -0.000119 0.000119 -2.803562 -7.518461 4.267067 139.999924
9 139.999924 -0.000119 0.000119 -2.675314 -7.020262 4.349869 139.999924
[Rope3_Seg04]
8 139.999924 0.000119 0.000000 -4.459609 -11.183944 7.006572 139.999924
9 139.999924 0.000119 0.000000 -4.220345 -9.677437 7.207307 139.999924
[Rope3_Seg05]
8 139.999924 -0.000238 0.000060 -6.352685 -16.087917 10.225057 139.999924
9 139.999924 -0.000238 0.000060 -5.765859 -12.942044 9.470954 139.999924
[Rope3_Seg06]
8 139.999893 -0.000119 -0.000060 -0.427138 -10.446092 -3.461106 139.999893
9 139.999893 -0.000119 -0.000060 -0.516305 -10.500469 -4.367268 139.999893
[Rope3_Seg07]
8 139.999771 0.000060 -0.000119 0.867983 -4.158801 -9.880762 139.999771
9 139.999771 0.000060 -0.000119 1.091780 -6.378807 -10.341740 139.999771
[Rope3_Seg08]
8 139.999985 -0.000060 0.000000 0.896207 -4.433400 -3.790405 139.999985
9 139.999985 -0.000060 0.000000 1.000398 -5.132259 -3.935277 139.999985
[Rope3_Seg09]
8 90.185997 -0.000179 -0.000060 89.793228 -1.359877 -0.847183 90.185997
9 90.185997 -0.000179 -0.000060 89.793228 -1.359877 -0.847183 90.185997
[R_rear_hand01]
8 103.366196 -6.073594 -10.757982 -177.714203 24.565960 -73.910950 104.101845
9 103.366196 -6.073594 -10.757982 -177.714203 24.565960 -73.910950 104.101845
[R_rear_hand02]
8 100.509819 12.039542 -7.992327 -12.874829 36.868488 72.167213 101.543350
9 100.509819 12.039542 -7.992327 -12.874829 36.868488 72.167213 101.543350
[R_rear_hand03]
8 101.539970 5.215704 5.435467 71.484581 -71.816628 21.513813 101.819031
9 101.539970 5.215704 5.435467 71.484581 -71.816628 21.513813 101.819031
[Rope4_Seg01]
8 0.000000 0.000000 0.000000 -94.239159 -20.643211 -118.205849 0.000000
9 0.000000 0.000000 0.000000 -93.830688 -22.128597 -118.592888 0.000000
[Rope4_Seg02]
8 139.999985 0.000060 0.000119 1.295925 3.096184 -12.272371 139.999985
9 139.999985 0.000060 0.000119 1.323124 4.278173 -12.560831 139.999985
[Rope4_Seg03]
8 139.999924 0.000000 -0.000238 0.756434 3.324475 -13.062243 139.999924
9 139.999924 0.000000 -0.000238 0.986720 4.928368 -12.943929 139.999924
[Rope4_Seg04]
8 139.999985 0.000000 0.000119 0.275085 4.004282 -10.201544 139.999985
9 139.999985 0.000000 0.000119 0.745011 5.157983 -10.062641 139.999985
[Rope4_Seg05]
8 139.999802 -0.000060 -0.000119 0.069574 -0.164819 -12.565897 139.999802
9 139.999802 -0.000060 -0.000119 0.724217 -1.457066 -15.506634 139.999802
[Rope4_Seg06]
8 139.999924 0.000000 0.000060 -1.432049 -3.678727 -17.584482 139.999924
9 139.999924 0.000000 0.000060 -1.270753 -5.089020 -18.850742 139.999924
[Rope4_Seg07]
8 139.999802 0.000000 0.000000 -3.263196 -1.705865 -13.529766 139.999802
9 139.999802 0.000000 0.000000 -2.856289 -1.770838 -11.616506 139.999802
[Rope4_Seg08]
8 139.999924 0.000000 0.000119 -4.400498 -0.374475 -8.097775 139.999924
9 139.999924 0.000000 0.000119 -3.856508 -0.622275 -6.746003 139.999924
[Rope4_Seg09]
8 90.185791 0.000060 0.000060 -135.617828 2.228885 0.850567 90.185791
9 90.185791 0.000060 0.000060 -135.617828 2.228885 0.850567 90.185791
[L_rear_hand01]
8 101.696655 -8.392275 -7.654577 -12.874829 -36.868488 107.832764 102.329041
9 101.696655 -8.392275 -7.654577 -12.874829 -36.868488 107.832764 102.329041
[L_rear_hand02]
8 102.726799 -1.568258 5.773216 71.484581 71.816628 158.486160 102.900848
9 102.726799 -1.568258 5.773216 71.484581 71.816628 158.486160 102.900848
[L_rear_hand03]
8 104.552910 9.721220 -10.420293 -177.714203 -24.565960 -106.089035 105.519653
9 104.552910 9.721220 -10.420293 -177.714203 -24.565960 -106.089035 105.519653
